<svg width="512" height="512" viewBox="0 0 512 512" fill="none" xmlns="http://www.w3.org/2000/svg" xmlns:xlink="http://www.w3.org/1999/xlink" class=""><rect id="_r_3r_" width="512" height="512" x="0" y="0" rx="128" fill="url(#_r_3s_)" stroke="#FFFFFF" stroke-width="0" stroke-opacity="100%" paint-order="stroke"></rect><clipPath id="clip"><use xlink:href="#_r_3r_"></use></clipPath><defs><radialGradient id="_r_3s_" cx="50%" cy="50%" r="100%" fx="50%" fy="100%" gradientUnits="objectBoundingBox"><stop stop-color="#ffffff"></stop><stop offset="1" stop-color="#666666"></stop></radialGradient><radialGradient id="_r_3t_" cx="0" cy="0" r="1" gradientUnits="userSpaceOnUse" gradientTransform="translate(256) rotate(90) scale(512)"><stop stop-color="white"></stop><stop offset="1" stop-color="white" stop-opacity="0"></stop></radialGradient></defs><svg xmlns="http://www.w3.org/2000/svg" width="352" height="352" viewBox="0 0 24 24" fill="none" stroke="currentColor" stroke-width="2" stroke-linecap="round" stroke-linejoin="round" class="lucide lucide-brain-icon lucide-brain" x="80" y="80" style="color: rgb(19, 19, 19); width: 352px; height: 352px;" alignment-baseline="middle"><path d="M12 18V5"></path><path d="M15 13a4.17 4.17 0 0 1-3-4 4.17 4.17 0 0 1-3 4"></path><path d="M17.598 6.5A3 3 0 1 0 12 5a3 3 0 1 0-5.598 1.5"></path><path d="M17.997 5.125a4 4 0 0 1 2.526 5.77"></path><path d="M18 18a4 4 0 0 0 2-7.464"></path><path d="M19.967 17.483A4 4 0 1 1 12 18a4 4 0 1 1-7.967-.517"></path><path d="M6 18a4 4 0 0 1-2-7.464"></path><path d="M6.003 5.125a4 4 0 0 0-2.526 5.77"></path></svg></svg>